<?xml version="1.0" encoding="UTF-8"?>
<svg xmlns="http://www.w3.org/2000/svg" fill="none" height="64" viewBox="0 0 65 64" width="65">
  <path d="M32.0314 14.5186C28.4512 14.5186 24.9514 15.5803 21.9745 17.5694C18.9977 19.5585 16.6776 22.3857 15.3075 25.6934C13.9375 29.0011 13.5791 32.6408 14.2776 36.1522C14.976 39.6636 16.7001 42.889 19.2317 45.4206C21.7633 47.9522 24.9888 49.6762 28.5002 50.3746C32.0116 51.0731 35.6513 50.7146 38.959 49.3445C42.2667 47.9744 45.0938 45.6542 47.0829 42.6774C49.0719 39.7005 50.1336 36.2007 50.1336 32.6205C50.1336 30.2433 49.6654 27.8894 48.7556 25.6931C47.8459 23.4969 46.5125 21.5013 44.8316 19.8204C43.1506 18.1394 41.155 16.8061 38.9588 15.8964C36.7625 14.9867 34.4086 14.5185 32.0314 14.5186ZM32.0314 44.3906C29.7034 44.3905 27.4278 43.7002 25.4922 42.4068C23.5566 41.1135 22.048 39.2752 21.1572 37.1245C20.2664 34.9738 20.0333 32.6072 20.4875 30.324C20.9417 28.0408 22.0627 25.9435 23.7088 24.2975C25.3549 22.6514 27.4522 21.5304 29.7354 21.0763C32.0186 20.6222 34.3852 20.8553 36.5359 21.7462C38.6866 22.637 40.5248 24.1457 41.8181 26.0813C43.1114 28.0169 43.8017 30.2926 43.8017 32.6205C43.8017 34.1662 43.4972 35.6967 42.9057 37.1248C42.3142 38.5528 41.4472 39.8503 40.3542 40.9433C39.2612 42.0362 37.9637 42.9032 36.5357 43.4947C35.1076 44.0862 33.5771 44.3906 32.0314 44.3905V44.3906Z" fill="#183A9E" opacity="0.15"></path>
  <path d="M31.2857 36.0413L27.7637 32.5203L28.4707 31.8133L31.2857 34.6273L35.5937 30.3193L36.3007 31.0263L31.2857 36.0413Z" fill="#000000"></path>
  <path d="M23.561 63.5221L23.1963 63.4176C19.6985 62.4179 16.3971 60.8282 13.4345 58.717L13.1255 58.4967L15.8085 51.0641C13.6275 49.1484 11.8036 46.8608 10.4218 44.3078L2.57715 45.2701L2.43164 44.9195C1.03287 41.5616 0.217612 37.9894 0.021 34.3571L0 33.9781L7.49756 31.4366C7.63099 28.5405 8.28032 25.6915 9.415 23.0236L3.76465 17.484L3.94775 17.1515C5.7015 13.9644 7.98605 11.0997 10.7031 8.6808L10.9863 8.42836L17.644 12.7042C19.9923 11.0014 22.626 9.73181 25.4209 8.95524L26.229 1.08805L26.603 1.02405C30.1881 0.407348 33.8523 0.407348 37.4374 1.02405L37.8114 1.08805L38.6186 8.9484C41.4176 9.72364 44.0555 10.9931 46.4076 12.6969L53.0542 8.42836L53.3374 8.68129C56.0546 11.0999 58.3391 13.9646 60.0923 17.152L60.2754 17.4845L54.6416 23.0084C55.7809 25.6834 56.4325 28.5405 56.5654 31.445L64.04 33.9781L64.019 34.357C63.8222 37.9894 63.007 41.5615 61.6084 44.9195L61.4628 45.2701L53.6391 44.3101C52.2541 46.8693 50.4247 49.1616 48.2363 51.0797L50.914 58.4967L50.6049 58.7169C47.6427 60.8283 44.3414 62.418 40.8437 63.4176L40.479 63.5221L36.3496 56.8058C33.4862 57.3167 30.5548 57.3154 27.6919 56.8019L23.561 63.5221ZM36.8413 55.6955L40.9321 62.3498C44.0647 61.4129 47.0291 59.9853 49.7148 58.1203L47.0615 50.7707L47.3247 50.5461C49.6201 48.5905 51.5185 46.212 52.9165 43.5401L53.0771 43.2335L60.8286 44.1847C62.0491 41.1511 62.7813 37.9434 62.9981 34.6808L55.5913 32.1705L55.5801 31.8248C55.4842 28.8137 54.8081 25.8493 53.5889 23.0943L53.4482 22.7779L59.0317 17.3033C57.4208 14.4577 55.3694 11.8851 52.9536 9.68125L46.3677 13.9112L46.0903 13.7042C43.6779 11.9046 40.9409 10.5874 38.0293 9.82486L37.6943 9.73697L36.8945 1.9479C33.6654 1.43326 30.3751 1.43326 27.146 1.9479L26.3452 9.74331L26.0107 9.8312C23.1033 10.5952 20.3704 11.9127 17.9619 13.7116L17.6841 13.9186L11.0869 9.68129C8.67133 11.8852 6.61975 14.4576 5.0083 17.3029L10.6074 22.7926L10.4678 23.1095C9.2532 25.8575 8.57931 28.8137 8.48291 31.8165L8.47168 32.1622L1.042 34.6808C1.25885 37.9434 1.99107 41.1511 3.21144 44.1847L10.9839 43.2311L11.1445 43.5377C12.5395 46.2037 14.4323 48.5777 16.7207 50.5314L16.9829 50.756L14.3247 58.1203C17.0105 59.9854 19.9751 61.4129 23.1079 62.3497L27.2012 55.6911L27.5405 55.757C30.5001 56.3299 33.542 56.331 36.502 55.7604L36.8413 55.6955Z" fill="#000000"></path>
  <path d="M32.0303 44.8911C29.6035 44.8912 27.2311 44.1716 25.2133 42.8233C23.1954 41.4751 21.6226 39.5588 20.6939 37.3167C19.7651 35.0746 19.5221 32.6075 19.9955 30.2273C20.4689 27.8471 21.6375 25.6607 23.3535 23.9446C25.0695 22.2286 27.2558 21.0599 29.636 20.5864C32.0162 20.1129 34.4833 20.3559 36.7254 21.2845C38.9675 22.2132 40.8839 23.7859 42.2322 25.8037C43.5806 27.8215 44.3002 30.1938 44.3003 32.6206C44.2967 35.8738 43.0028 38.9926 40.7025 41.293C38.4023 43.5934 35.2834 44.8874 32.0303 44.8911V44.8911ZM32.0303 21.3506C29.8012 21.3505 27.6222 22.0115 25.7688 23.2499C23.9153 24.4882 22.4708 26.2484 21.6177 28.3078C20.7647 30.3672 20.5415 32.6333 20.9763 34.8195C21.4112 37.0057 22.4846 39.0139 24.0608 40.5901C25.6369 42.1663 27.6451 43.2397 29.8314 43.6746C32.0176 44.1094 34.2837 43.8862 36.3431 43.0332C38.4025 42.1801 40.1626 40.7355 41.401 38.8821C42.6394 37.0287 43.3003 34.8497 43.3003 32.6206C43.2969 29.6326 42.1085 26.768 39.9957 24.6552C37.8829 22.5424 35.0182 21.354 32.0303 21.3506V21.3506Z" fill="#000000"></path>
</svg>
