<?xml version="1.0" encoding="UTF-8"?>
<!-- Generator: Adobe Illustrator 24.0.0, SVG Export Plug-In . SVG Version: 6.00 Build 0)  -->
<svg xmlns="http://www.w3.org/2000/svg" xmlns:xlink="http://www.w3.org/1999/xlink" version="1.1" id="Layer_1" x="0px" y="0px" viewBox="0 0 48 49" style="enable-background:new 0 0 48 49;" xml:space="preserve">
<style type="text/css">
	.st0{fill:none;stroke:#000000;stroke-miterlimit:10;}
</style>
<g>
	<path d="M35.2,24.5c0,0.1,0,0.1,0,0.2c0,0.1-0.1,0.1-0.1,0.2l-4.3,4.3l-0.5-0.5l4.1-4.1l-4.1-4.1l0.5-0.5l4.3,4.3   c0,0,0.1,0.1,0.1,0.2C35.2,24.4,35.2,24.4,35.2,24.5z"></path>
	<polygon points="10.8,24.9 11.2,24.9 11.6,24.9 34.9,24.9 34.9,24.1 11.6,24.1 11.2,24.1 10.8,24.1  "></polygon>
	<circle class="st0" cx="6.6" cy="24.5" r="4.6"></circle>
	<circle cx="40.9" cy="24.5" r="4.6"></circle>
</g>
</svg>
