<?xml version="1.0" encoding="UTF-8"?>
<svg xmlns="http://www.w3.org/2000/svg" fill="none" height="64" viewBox="0 0 64 64" width="64">
  <path d="M32 0.5V28.4287C32.469 28.4287 32.9334 28.5211 33.3667 28.7006C33.8 28.88 34.1936 29.1431 34.5253 29.4747C34.8569 29.8064 35.12 30.2 35.2994 30.6333C35.4789 31.0666 35.5713 31.531 35.5713 32C35.5713 32.469 35.4789 32.9334 35.2994 33.3667C35.12 33.8 34.8569 34.1936 34.5253 34.5253C34.1936 34.8569 33.8 35.12 33.3667 35.2994C32.9334 35.4789 32.469 35.5713 32 35.5713V44.9645H47.2143V52.4642H32V63.5C40.3543 63.5 48.3665 60.1813 54.2739 54.2739C60.1813 48.3665 63.5 40.3543 63.5 32C63.5 23.6457 60.1813 15.6335 54.2739 9.72614C48.3665 3.81874 40.3543 0.5 32 0.5V0.5Z" fill="#183A9E" opacity="0.15"></path>
  <path d="M32 64C25.671 64 19.4841 62.1232 14.2218 58.607C8.95939 55.0908 4.85787 50.0931 2.43587 44.2459C0.013865 38.3986 -0.619842 31.9645 0.614885 25.7571C1.84961 19.5497 4.89732 13.8479 9.3726 9.3726C13.8479 4.89732 19.5497 1.84961 25.7571 0.614885C31.9645 -0.619842 38.3986 0.013865 44.2459 2.43587C50.0931 4.85787 55.0908 8.95939 58.607 14.2218C62.1232 19.4841 64 25.671 64 32C63.9905 40.484 60.616 48.6178 54.6169 54.6169C48.6178 60.616 40.484 63.9905 32 64ZM32 1.00001C25.8688 1.00001 19.8753 2.81813 14.7773 6.22446C9.67941 9.63078 5.70607 14.4723 3.35975 20.1368C1.01343 25.8013 0.399529 32.0344 1.59567 38.0478C2.79181 44.0612 5.74428 49.5849 10.0797 53.9203C14.4151 58.2558 19.9388 61.2082 25.9522 62.4044C31.9656 63.6005 38.1987 62.9866 43.8632 60.6403C49.5277 58.294 54.3693 54.3206 57.7756 49.2227C61.1819 44.1248 63 38.1312 63 32C62.9907 23.7812 59.7216 15.9016 53.91 10.09C48.0984 4.27844 40.2189 1.00937 32 1.00001V1.00001Z" fill="#000000"></path>
  <path d="M7.75586 31.9996H6.75586C6.75594 27.0068 8.23653 22.1262 11.0104 17.9749C13.7843 13.8236 17.7268 10.5881 22.3395 8.67744C26.9523 6.76681 32.0279 6.26689 36.9248 7.24091C41.8216 8.21492 46.3196 10.6191 49.8501 14.1495L50.2036 14.503L34.8789 29.8277L34.1719 29.1207L48.7856 14.5064C45.3565 11.2161 41.036 9.00609 36.3611 8.1512C31.6863 7.29632 26.8632 7.83424 22.4916 9.69811C18.1199 11.562 14.3925 14.6696 11.7726 18.6346C9.15269 22.5996 7.75591 27.2472 7.75586 31.9996V31.9996Z" fill="#000000"></path>
  <path d="M32 36.0693C31.0586 36.0687 30.1465 35.7416 29.4192 35.1439C28.6919 34.5461 28.1943 33.7147 28.0113 32.7913C27.8282 31.8678 27.971 30.9094 28.4153 30.0795C28.8596 29.2495 29.578 28.5992 30.448 28.2395C31.3179 27.8797 32.2857 27.8328 33.1865 28.1066C34.0872 28.3804 34.8651 28.958 35.3877 29.7411C35.9103 30.5241 36.1452 31.4642 36.0525 32.401C35.9597 33.3379 35.545 34.2136 34.8789 34.8789V34.8789C34.5011 35.2571 34.0522 35.5569 33.5582 35.7612C33.0642 35.9655 32.5346 36.0702 32 36.0693V36.0693ZM32 28.9302C31.2898 28.9307 30.6018 29.1775 30.0532 29.6285C29.5045 30.0794 29.1292 30.7066 28.9912 31.4033C28.8531 32.0999 28.9609 32.8229 29.2961 33.449C29.6313 34.0751 30.1732 34.5656 30.8295 34.8369C31.4858 35.1083 32.2159 35.1437 32.8954 34.9371C33.5749 34.7305 34.1617 34.2947 34.5559 33.704C34.9501 33.1132 35.1273 32.4041 35.0573 31.6973C34.9873 30.9906 34.6744 30.33 34.1719 29.8281C33.8869 29.5428 33.5483 29.3166 33.1756 29.1625C32.8028 29.0084 32.4034 28.9294 32 28.9302V28.9302Z" fill="#000000"></path>
  <path d="M56.7437 31.5H50.7227V32.5H56.7437V31.5Z" fill="#000000"></path>
  <path d="M54.6637 22.0575L49.1016 24.3623L49.4844 25.2861L55.0466 22.9813L54.6637 22.0575Z" fill="#000000"></path>
  <path d="M47.7139 52.9648H16.2852V44.4648H47.7139V52.9648ZM17.2852 51.9648H46.7139V45.4648H17.2852V51.9648Z" fill="#000000"></path>
</svg>
