<?xml version="1.0" encoding="UTF-8"?>
<!-- Generator: Adobe Illustrator 24.0.0, SVG Export Plug-In . SVG Version: 6.00 Build 0)  -->
<svg xmlns="http://www.w3.org/2000/svg" xmlns:xlink="http://www.w3.org/1999/xlink" version="1.1" id="Layer_1" x="0px" y="0px" viewBox="0 0 64 64" style="enable-background:new 0 0 64 64;" xml:space="preserve">
<style type="text/css">
	.st0{opacity:0.15;fill:#183A9E;enable-background:new    ;}
</style>
<g>
	<g id="Layer_2_1_">
		<g id="Icons">
			<g>
				<path d="M40.6,22.5H23.4c-0.2,0-0.4-0.2-0.4-0.4V4.9c0-0.2,0.2-0.4,0.4-0.4h17.3c0.2,0,0.4,0.2,0.4,0.4v17.3      C41,22.3,40.8,22.5,40.6,22.5z M23.7,21.7h16.5V5.2H23.7V21.7z"></path>
			</g>
			<g>
				<path d="M34.9,25.3h-1.4v-2.2h1.4V25.3z M31.1,25.3h-1.4v-2.2h1.4V25.3z M36.9,18.7h-9.7c-0.2,0-0.4-0.2-0.4-0.4V8.6      c0-0.2,0.2-0.4,0.4-0.4h9.7c0.2,0,0.4,0.2,0.4,0.4v9.7C37.2,18.5,37.1,18.7,36.9,18.7z M27.5,18h8.9V9h-8.9      C27.5,9,27.5,18,27.5,18z M43.9,16.2h-2.2V15h2.2V16.2z M22.3,16.2h-2.2V15h2.2V16.2z M43.9,12.5h-2.2v-1.3h2.2V12.5z       M22.3,12.5h-2.2v-1.3h2.2V12.5z M34.9,3.8h-1.4V1.6h1.4V3.8z M31.1,3.8h-1.4V1.6h1.4V3.8z"></path>
			</g>
		</g>
	</g>
	<path class="st0" d="M7.3,24.2v13.4H58V24.2H7.3z M7.3,40.3h21v15.1h-21C7.3,55.4,7.3,40.3,7.3,40.3z M31,40.3h27V47H31   C31,47,31,40.3,31,40.3z M31,48.7h27v6.6H31C31,55.3,31,48.7,31,48.7z"></path>
</g>
<g>
	<path d="M62.4,18.1v-7.3c0-0.3-0.2-0.5-0.5-0.5H46.2v1h15.3v6.3H46.2v1H62C62.3,18.6,62.5,18.5,62.4,18.1z"></path>
	<g>
		<path d="M11.5,12.5c-0.9,0-1.8,0.8-1.8,1.9c0,1.1,0.8,2,1.8,2s1.9-0.9,1.8-2C13.3,13.3,12.4,12.5,11.5,12.5z"></path>
		<path d="M7,12.5c-1,0-1.8,0.8-1.8,1.9c0,1.1,0.7,2,1.8,2s1.8-0.9,1.9-2C8.9,13.3,8.1,12.5,7,12.5z"></path>
		<path d="M16,12.5c-0.9,0-1.8,0.8-1.8,1.9c0,1.1,0.7,2,1.8,2s1.9-0.9,1.8-2C17.8,13.3,16.9,12.5,16,12.5z"></path>
	</g>
	<path d="M2.5,17.6v-6.3h16.2v-1H2c-0.3,0-0.5,0.2-0.5,0.5v7.3c0,0.3,0.2,0.5,0.5,0.5h16.7v-1H2.5z"></path>
</g>
<g>
	<path d="M62,20.7H46.2v1h15.3v37.8H45.8h-1.7H2.5V21.7h16.2v-1H2c-0.3,0-0.5,0.2-0.5,0.5V60c0,0.3,0.2,0.5,0.5,0.5h42.1h1.7H62   c0.3,0,0.5-0.2,0.5-0.5V21.2C62.5,20.9,62.3,20.7,62,20.7z"></path>
</g>
<rect x="28.9" y="10.4" class="st0" width="6.1" height="6.1"></rect>
</svg>
