<?xml version="1.0" encoding="UTF-8"?>
<svg xmlns="http://www.w3.org/2000/svg" fill="none" height="64" viewBox="0 0 64 64" width="64">
  <g clip-path="url(#clip0_9613_72918)">
    <path d="M40.1587 0.5H23.8418V5H40.1587V0.5Z" fill="#183A9E" opacity="0.15"></path>
    <path d="M63.5 46.1562H0.5V53.375H63.5V46.1562Z" fill="#183A9E" opacity="0.15"></path>
    <path d="M64 53.875H0V4.5H64V53.875ZM1 52.875H63V5.5H1V52.875Z" fill="#000000"></path>
    <path d="M32.5 53.375H31.5V63.5H32.5V53.375Z" fill="#000000"></path>
    <path d="M19.8807 53.0953L13.0234 63.1963L13.8506 63.7578L20.7078 53.6568L19.8807 53.0953Z" fill="#000000"></path>
    <path d="M44.1222 53.0939L43.2949 53.6553L50.1499 63.7578L50.9772 63.1965L44.1222 53.0939Z" fill="#000000"></path>
    <path d="M40.6578 5H39.6578V1H24.3418V5H23.3418V0H40.6578V5Z" fill="#000000"></path>
    <path d="M21.1143 31.7031C19.2167 31.7032 17.3617 31.1406 15.7839 30.0865C14.206 29.0323 12.9762 27.5339 12.25 25.7808C11.5238 24.0277 11.3337 22.0986 11.7038 20.2374C12.074 18.3763 12.9877 16.6667 14.3295 15.3249C15.6712 13.9831 17.3807 13.0693 19.2419 12.699C21.103 12.3288 23.0321 12.5188 24.7852 13.2449C26.5384 13.9711 28.0368 15.2008 29.0911 16.7786C30.1453 18.3564 30.708 20.2113 30.708 22.1089C30.7051 24.6525 29.6934 27.091 27.8948 28.8896C26.0963 30.6882 23.6578 31.7 21.1143 31.7031ZM21.1143 13.5147C19.4145 13.5146 17.7528 14.0185 16.3394 14.9628C14.926 15.9071 13.8244 17.2493 13.1739 18.8197C12.5233 20.3901 12.3531 22.1181 12.6846 23.7853C13.0162 25.4524 13.8347 26.9838 15.0366 28.1858C16.2385 29.3878 17.7698 30.2063 19.4369 30.538C21.1041 30.8696 22.8321 30.6995 24.4025 30.049C25.973 29.3985 27.3152 28.297 28.2596 26.8837C29.204 25.4703 29.708 23.8087 29.708 22.1089C29.7054 19.8305 28.7992 17.6461 27.1881 16.0349C25.577 14.4238 23.3927 13.5174 21.1143 13.5147Z" fill="#000000"></path>
    <path d="M30.2617 45.8598H24.0586V39.2158H30.2617V45.8598ZM25.0586 44.8598H29.2617V40.2158H25.0586V44.8598Z" fill="#000000"></path>
    <path d="M41.3711 45.8599H35.168V33.5723H41.3711V45.8599ZM36.168 44.8599H40.3711V34.5723H36.168V44.8599Z" fill="#000000"></path>
    <path d="M52.4805 45.8599H46.2773V22.2852H52.4805V45.8599ZM47.2773 44.8599H51.4805V23.2852H47.2773V44.8599Z" fill="#000000"></path>
    <path d="M27.1903 28.8926L20.6133 22.3156V13.0146H21.6133V21.9016L27.8973 28.1856L27.1903 28.8926Z" fill="#000000"></path>
  </g>
  <defs>
    <clipPath id="clip0_9613_72918">
      <rect fill="white" height="64.0001" width="64.0001"></rect>
    </clipPath>
  </defs>
</svg>
