<?xml version="1.0" encoding="UTF-8"?>
<!-- Generator: Adobe Illustrator 24.0.0, SVG Export Plug-In . SVG Version: 6.00 Build 0)  -->
<svg xmlns="http://www.w3.org/2000/svg" xmlns:xlink="http://www.w3.org/1999/xlink" version="1.1" id="Layer_1" x="0px" y="0px" viewBox="0 0 64 64" style="enable-background:new 0 0 64 64;" xml:space="preserve">
<style type="text/css">
	.st0{opacity:0.15;enable-background:new    ;}
	.st1{fill:#183A9E;}
</style>
<g>
	<g>
		<g>
			<g>
				<g>
					<g>
						<path d="M25.9,59.8c-0.3,0-0.5-0.2-0.5-0.5v-7.4c0-0.3,0.2-0.5,0.5-0.5s0.5,0.2,0.5,0.5v7.4C26.3,59.6,26.1,59.8,25.9,59.8z"></path>
					</g>
					<g>
						<path d="M37.4,59.8c-0.3,0-0.5-0.2-0.5-0.5v-7.4c0-0.3,0.2-0.5,0.5-0.5c0.3,0,0.5,0.2,0.5,0.5v7.4        C37.9,59.6,37.7,59.8,37.4,59.8z"></path>
					</g>
				</g>
				<g>
					<path d="M48.5,62.7H15.2c-0.3,0-0.5-0.2-0.5-0.5v-2.9c0-0.3,0.2-0.5,0.5-0.5h33.3c0.3,0,0.5,0.2,0.5,0.5v2.9       C49,62.4,48.7,62.7,48.5,62.7z M15.7,61.7H48v-1.9H15.7V61.7z"></path>
				</g>
			</g>
			<g>
				<g>
					<path d="M63.2,45.9H0.8c-0.3,0-0.5-0.2-0.5-0.5V10.1c0-0.3,0.2-0.5,0.5-0.5h36.6c0.3,0,0.5,0.2,0.5,0.5s-0.2,0.5-0.5,0.5H1.3       v34.3h61.5V10.6h-2.8c-0.3,0-0.5-0.2-0.5-0.5s0.2-0.5,0.5-0.5h3.3c0.3,0,0.5,0.2,0.5,0.5v35.3C63.7,45.7,63.5,45.9,63.2,45.9z"></path>
				</g>
				<g>
					<path d="M63.2,52.4H0.8c-0.3,0-0.5-0.2-0.5-0.5v-6.5c0-0.3,0.2-0.5,0.5-0.5h62.4c0.3,0,0.5,0.2,0.5,0.5v6.5       C63.7,52.2,63.5,52.4,63.2,52.4z M1.3,51.4h61.5v-5.5H1.3V51.4z"></path>
				</g>
				<g>
					<path d="M12.6,43.3c-0.3,0-0.5-0.2-0.5-0.5v-30c0-0.3,0.2-0.5,0.5-0.5c0.3,0,0.5,0.2,0.5,0.5v30C13.1,43.1,12.9,43.3,12.6,43.3       z"></path>
				</g>
				<g>
					<path d="M25.9,43.3c-0.3,0-0.5-0.2-0.5-0.5v-30c0-0.3,0.2-0.5,0.5-0.5s0.5,0.2,0.5,0.5v30C26.3,43.1,26.1,43.3,25.9,43.3z"></path>
				</g>
				<g>
					<path d="M38.4,43.3c-0.3,0-0.5-0.2-0.5-0.5v-0.6c0-0.3,0.2-0.5,0.5-0.5c0.3,0,0.5,0.2,0.5,0.5v0.6       C38.9,43.1,38.7,43.3,38.4,43.3z"></path>
				</g>
				<g>
					<path d="M49.1,43.3c-0.3,0-0.5-0.2-0.5-0.5v-0.6c0-0.3,0.2-0.5,0.5-0.5c0.3,0,0.5,0.2,0.5,0.5v0.6       C49.6,43.1,49.4,43.3,49.1,43.3z"></path>
				</g>
			</g>
		</g>
		<g>
			<g>
				<path d="M44.2,35.6c-0.3,0-0.5-0.2-0.5-0.5V7.7c0-0.3,0.2-0.5,0.5-0.5c0.3,0,0.5,0.2,0.5,0.5v27.3      C44.7,35.3,44.4,35.6,44.2,35.6z"></path>
			</g>
			<g>
				<path d="M53.4,35.6c-0.3,0-0.5-0.2-0.5-0.5V7.7c0-0.3,0.2-0.5,0.5-0.5c0.3,0,0.5,0.2,0.5,0.5v27.3      C53.9,35.3,53.7,35.6,53.4,35.6z"></path>
			</g>
			<g>
				<path d="M58.9,38.3H38.4c-0.3,0-0.5-0.2-0.5-0.5V5.1c0-0.3,0.2-0.5,0.5-0.5h20.5c0.3,0,0.5,0.2,0.5,0.5v32.7      C59.4,38.1,59.2,38.3,58.9,38.3z M38.9,37.3h19.5V5.6H38.9V37.3z"></path>
			</g>
			<g>
				<path d="M58.9,41.4H38.4c-0.3,0-0.5-0.2-0.5-0.5v-3.1c0-0.3,0.2-0.5,0.5-0.5h20.5c0.3,0,0.5,0.2,0.5,0.5v3.1      C59.4,41.2,59.2,41.4,58.9,41.4z M38.9,40.4h19.5v-2.1H38.9V40.4z"></path>
			</g>
			<g>
				<path d="M58.9,5.6H38.4c-0.3,0-0.5-0.2-0.5-0.5V1.9c0-0.3,0.2-0.5,0.5-0.5h20.5c0.3,0,0.5,0.2,0.5,0.5v3.2      C59.4,5.4,59.2,5.6,58.9,5.6z M38.9,4.6h19.5V2.4H38.9V4.6z"></path>
			</g>
		</g>
	</g>
	<g class="st0">
		<rect x="38.4" y="1.9" class="st1" width="20.5" height="3.3"></rect>
	</g>
	<g class="st0">
		<rect x="0.8" y="45.4" class="st1" width="62.4" height="6.6"></rect>
	</g>
</g>
</svg>
