<?xml version="1.0" encoding="UTF-8"?>
<!-- Generator: Adobe Illustrator 24.0.0, SVG Export Plug-In . SVG Version: 6.00 Build 0)  -->
<svg xmlns="http://www.w3.org/2000/svg" xmlns:xlink="http://www.w3.org/1999/xlink" version="1.1" id="Layer_1" x="0px" y="0px" viewBox="0 0 65 65" style="enable-background:new 0 0 65 65;" xml:space="preserve">
<style type="text/css">
	.st0{opacity:0.15;enable-background:new    ;}
	.st1{fill:#183A9E;}
</style>
<g>
	<g class="st0">
		<ellipse class="st1" cx="15" cy="24.6" rx="5.3" ry="5.5"></ellipse>
	</g>
	<g class="st0">
		<ellipse class="st1" cx="31.2" cy="24" rx="5.3" ry="5.5"></ellipse>
	</g>
	<g class="st0">
		<ellipse class="st1" cx="47.3" cy="24" rx="5.3" ry="5.5"></ellipse>
	</g>
	<g class="st0">
		<polygon class="st1" points="59.2,53.4 49.6,53.4 45,45.6 62.1,45.6   "></polygon>
	</g>
	<g>
		<g>
			<path d="M59.3,11.8H2c-0.3,0-0.5-0.2-0.5-0.5V4c0-0.3,0.2-0.5,0.5-0.5h57.2c0.3,0,0.5,0.2,0.5,0.5v7.3     C59.8,11.6,59.6,11.8,59.3,11.8z M2.5,10.8h56.3V4.5H2.5V10.8z M16,9.5c-1.1,0-1.8-0.9-1.8-2s0.9-1.9,1.8-1.9s1.8,0.9,1.8,1.9     C17.9,8.6,17.1,9.5,16,9.5z M16,6.5c-0.5,0-1,0.4-1,1c0,0.5,0.4,1,1,1c0.5,0,1-0.4,1-1C16.9,7,16.5,6.5,16,6.5z M11.5,9.5     c-1,0-1.8-0.9-1.8-2s0.9-1.9,1.8-1.9s1.8,0.9,1.8,1.9C13.4,8.6,12.5,9.5,11.5,9.5z M11.5,6.5c-0.5,0-1,0.4-1,1c0,0.5,0.4,1,1,1     c0.5,0,1-0.4,1-1C12.4,7,12,6.5,11.5,6.5z M7,9.5c-1.1,0-1.8-0.9-1.8-2S6,5.6,7,5.6c1.1,0,1.9,0.9,1.9,1.9C8.8,8.6,8.1,9.5,7,9.5     z M7,6.5c-0.5,0-1,0.4-1,1c0,0.5,0.4,1,1,1s1-0.4,1-1C8,7,7.5,6.5,7,6.5z"></path>
		</g>
		<g>
			<path d="M41.7,53.9H2c-0.3,0-0.5-0.2-0.5-0.5V14.6c0-0.3,0.2-0.5,0.5-0.5h57.2c0.3,0,0.5,0.2,0.5,0.5v23.9c0,0.2-0.1,0.3-0.2,0.4     c-0.1,0.1-0.3,0.1-0.5,0c-1.6-0.8-3.3-1.2-5.2-1.2c-3.4,0-6.5,1.4-8.8,4c-0.2,0.2-0.5,0.2-0.7,0s-0.2-0.5,0-0.7     c2.5-2.8,5.9-4.3,9.5-4.3c1.7,0,3.3,0.3,4.9,1V15.1H2.5v37.8h38.6c-0.1-0.8-0.2-1.6-0.2-2.5c0-1.8,0.4-3.6,1-5.3     c0.1-0.3,0.4-0.4,0.6-0.3c0.3,0.1,0.4,0.4,0.3,0.6c-0.6,1.5-1,3.2-1,4.9c0,1,0.1,1.9,0.3,2.9c0,0.1,0,0.3-0.1,0.4     C42,53.9,41.8,53.9,41.7,53.9z M20.2,48.4H9.6c-0.3,0-0.5-0.2-0.5-0.5s0.2-0.5,0.5-0.5h10.6c0.3,0,0.5,0.2,0.5,0.5     S20.5,48.4,20.2,48.4z M27.9,42.7H9.6c-0.3,0-0.5-0.2-0.5-0.5s0.2-0.5,0.5-0.5h18.3c0.3,0,0.5,0.2,0.5,0.5S28.2,42.7,27.9,42.7z      M27.9,37H9.6c-0.3,0-0.5-0.2-0.5-0.5S9.4,36,9.6,36h18.3c0.3,0,0.5,0.2,0.5,0.5S28.2,37,27.9,37z"></path>
		</g>
		<g>
			<ellipse cx="7" cy="7.5" rx="1.5" ry="1.5"></ellipse>
		</g>
		<g>
			<ellipse cx="11.5" cy="7.5" rx="1.5" ry="1.5"></ellipse>
		</g>
		<g>
			<ellipse cx="16" cy="7.5" rx="1.5" ry="1.5"></ellipse>
		</g>
		<g>
			<g>
				<path d="M54.1,61.5C48,61.5,43,56.4,43,50.1c0-1,0.1-2,0.4-3c0.1-0.3,0.3-0.4,0.6-0.4c0.3,0.1,0.4,0.3,0.4,0.6      C44.2,48.2,44,49.1,44,50c0,5.8,4.6,10.5,10.2,10.5S64.4,55.8,64.4,50s-4.6-10.5-10.2-10.5c-3.3,0-6.4,1.6-8.3,4.4      c-0.2,0.2-0.5,0.3-0.7,0.1s-0.3-0.5-0.1-0.7c2-3,5.4-4.8,9-4.8c6.1,0,11.1,5.1,11.1,11.4S60.3,61.5,54.1,61.5z"></path>
			</g>
			<g>
				<g>
					<path d="M59.2,53.9h-9.6c-0.2,0-0.3-0.1-0.4-0.2l-6.4-11h-3.1c-0.3,0-0.5-0.2-0.5-0.5s0.2-0.5,0.5-0.5H43       c0.2,0,0.3,0.1,0.4,0.2l6.4,11h9l2.5-7H46.3c-0.3,0-0.5-0.2-0.5-0.5s0.2-0.5,0.5-0.5h15.8c0.2,0,0.3,0.1,0.4,0.2       c0.1,0.1,0.1,0.3,0.1,0.5l-2.8,8C59.6,53.8,59.4,53.9,59.2,53.9z"></path>
				</g>
				<g>
					<path d="M49.5,58.2c-1.2,0-2.1-1-2.1-2.2s1-2.2,2.1-2.2c1.2,0,2.1,1,2.1,2.2S50.6,58.2,49.5,58.2z M49.5,54.7       c-0.7,0-1.2,0.5-1.2,1.2s0.5,1.2,1.2,1.2s1.2-0.5,1.2-1.2S50,54.7,49.5,54.7z"></path>
				</g>
				<g>
					<path d="M59,58.2c-1.2,0-2.1-1-2.1-2.2c0-0.3,0-1.1,0.6-1.6c0.4-0.4,0.9-0.6,1.6-0.6c1.2,0,2.1,1,2.1,2.2       C61.1,57.2,60.1,58.2,59,58.2z M59,54.7c-0.4,0-0.7,0.1-0.9,0.3c-0.3,0.3-0.3,0.8-0.3,0.9c0,0.7,0.5,1.2,1.2,1.2       s1.2-0.5,1.2-1.2C60.1,55.3,59.7,54.7,59,54.7z"></path>
				</g>
			</g>
		</g>
		<g>
			<g>
				<path d="M15,30.5c-3.1,0-5.7-2.6-5.7-5.8c0-1.6,0.6-3.1,1.7-4.2s2.5-1.8,4.1-1.8c2.5,0,4.8,1.6,5.5,4.1c0.1,0.3-0.1,0.5-0.3,0.6      c-0.3,0.1-0.5-0.1-0.6-0.3c-0.7-2.1-2.5-3.4-4.7-3.4c-1.3,0-2.5,0.6-3.4,1.5c-0.9,1-1.4,2.2-1.4,3.5c0,2.7,2.2,4.9,4.9,4.9h0.1      c2.6,0,4.8-2.3,4.8-5c0-0.1,0-0.3,0.1-0.4s0.2-0.1,0.4-0.1h5.3c0.3,0,0.5,0.2,0.5,0.5c0.1,2.5,1.9,4.5,4.4,4.9      c2.6,0.4,5.1-1.3,5.6-4c0.1-0.3,0.3-0.4,0.6-0.4c0.3,0.1,0.4,0.3,0.4,0.6c-0.8,3.1-3.6,5.2-6.7,4.7c-2.7-0.4-4.8-2.6-5.2-5.3H21      c-0.2,3-2.6,5.5-5.6,5.5C15.1,30.5,15,30.5,15,30.5z"></path>
			</g>
			<g>
				<path d="M47.3,30c-2.5,0-4.7-1.6-5.4-4.1c-0.1-0.3,0.1-0.5,0.3-0.6c0.3-0.1,0.5,0.1,0.6,0.3c0.7,2.1,2.5,3.4,4.7,3.4      c2.6,0,4.8-2.3,4.8-5s-2.2-4.9-4.9-4.9c-1.3,0-2.5,0.6-3.4,1.5c-0.9,1-1.4,2.2-1.4,3.5c0,0.1-0.1,0.3-0.1,0.4      c-0.1,0.1-0.2,0.2-0.4,0.1l-5.3-0.1c-0.3,0-0.5-0.2-0.5-0.5c-0.1-2.6-1.9-4.7-4.4-5c-1.4-0.2-2.7,0.2-3.8,1s-1.7,2.1-1.9,3.4      c0,0.3-0.3,0.5-0.6,0.4c-0.3,0-0.5-0.3-0.4-0.6c0.2-1.6,1.1-3.1,2.3-4.1s2.9-1.4,4.5-1.2c2.7,0.4,4.9,2.7,5.2,5.5l4.4,0.1      c0.1-1.4,0.7-2.7,1.7-3.7c1.1-1.1,2.5-1.8,4.1-1.8h0.1c3.1,0,5.7,2.6,5.7,5.8C53.2,27.2,50.6,29.9,47.3,30      C47.4,30,47.3,30,47.3,30z"></path>
			</g>
		</g>
	</g>
</g>
</svg>
