<?xml version="1.0" encoding="UTF-8"?>
<!-- Generator: Adobe Illustrator 24.0.0, SVG Export Plug-In . SVG Version: 6.00 Build 0)  -->
<svg xmlns="http://www.w3.org/2000/svg" xmlns:xlink="http://www.w3.org/1999/xlink" version="1.1" id="Layer_1" x="0px" y="0px" viewBox="0 0 65 65" style="enable-background:new 0 0 65 65;" xml:space="preserve">
<style type="text/css">
	.st0{opacity:0.15;fill:#183A9E;enable-background:new    ;}
</style>
<g>
	<path d="M59.9,48.9H6.1v-41h53.9V48.9z M7.3,47.7h51.5V9.1H7.3V47.7z"></path>
</g>
<circle cx="9.4" cy="11.1" r="0.9"></circle>
<circle cx="9.4" cy="45.8" r="0.9"></circle>
<circle cx="56.7" cy="11.1" r="0.9"></circle>
<circle cx="56.7" cy="45.8" r="0.9"></circle>
<g>
	<path d="M43.1,25.5c-4.1,0-7.4-3.3-7.4-7.4s3.3-7.5,7.4-7.5c4.1,0,7.5,3.3,7.5,7.5S47.2,25.5,43.1,25.5z M43.1,11.6   c-3.6,0-6.4,2.9-6.4,6.5c0,3.6,2.9,6.4,6.4,6.4c3.6,0,6.5-2.9,6.5-6.4C49.6,14.5,46.7,11.6,43.1,11.6z"></path>
</g>
<g>
	<path d="M55.2,42.4H11.1l12.7-29l10.8,18.4l6.9-5.2L55.2,42.4z M12.6,41.4H53L41.3,27.9l-7,5.3L23.9,15.6L12.6,41.4z"></path>
</g>
<circle class="st0" cx="43.1" cy="18" r="6.9"></circle>
<polygon class="st0" points="11.9,41.9 54.1,41.9 41.4,27.2 34.4,32.5 23.8,14.5 "></polygon>
</svg>
