<?xml version="1.0" encoding="UTF-8"?>
<svg xmlns="http://www.w3.org/2000/svg" fill="none" height="64" viewBox="0 0 64 64" width="64">
  <path d="M17.6988 59.7516C17.3008 59.7512 16.9192 59.5929 16.6377 59.3116C16.3562 59.0302 16.1978 58.6486 16.1973 58.2506V5.75051C16.1977 5.35243 16.3561 4.97079 16.6375 4.6893C16.919 4.40782 17.3007 4.24948 17.6988 4.24902H23.9683C24.0073 4.88804 24.2885 5.48814 24.7544 5.92713C25.2204 6.36612 25.8362 6.61098 26.4764 6.61184H37.5241C38.1643 6.61099 38.7801 6.36613 39.2461 5.92714C39.7121 5.48815 39.9933 4.88804 40.0323 4.24902H46.3018C46.6999 4.24949 47.0816 4.40783 47.363 4.68932C47.6445 4.9708 47.8028 5.35244 47.8033 5.75051V58.2507C47.8027 58.6487 47.6444 59.0302 47.3629 59.3116C47.0814 59.593 46.6998 59.7512 46.3018 59.7517L17.6988 59.7516Z" fill="#183A9E" opacity="0.15"></path>
  <path d="M46.3008 64H17.6973C16.1728 63.9982 14.7113 63.3919 13.6334 62.3139C12.5554 61.236 11.949 59.7744 11.9473 58.25V5.75C11.949 4.22555 12.5554 2.76405 13.6334 1.6861C14.7113 0.608148 16.1728 0.00177586 17.6973 0L46.3008 0C47.8252 0.00177586 49.2867 0.608148 50.3647 1.6861C51.4426 2.76405 52.049 4.22555 52.0508 5.75V58.25C52.049 59.7744 51.4426 61.236 50.3647 62.3139C49.2867 63.3919 47.8252 63.9982 46.3008 64V64ZM17.6973 1C16.4379 1.00143 15.2306 1.50233 14.3401 2.39282C13.4496 3.28331 12.9487 4.49066 12.9473 5.75V58.25C12.9487 59.5093 13.4496 60.7167 14.3401 61.6072C15.2306 62.4977 16.4379 62.9986 17.6973 63H46.3008C47.5601 62.9986 48.7675 62.4977 49.658 61.6072C50.5485 60.7167 51.0494 59.5093 51.0508 58.25V5.75C51.0494 4.49066 50.5485 3.28331 49.658 2.39282C48.7675 1.50233 47.5601 1.00143 46.3008 1H17.6973Z" fill="#000000"></path>
</svg>
