<?xml version="1.0" encoding="UTF-8"?>
<svg xmlns="http://www.w3.org/2000/svg" fill="none" height="49" viewBox="0 0 49 49" width="49">
  <g clip-path="url(#clip0_9613_54607)">
    <path d="M24.6665 30.8495H32.9083C32.9085 29.7669 32.6956 28.6948 32.2816 27.6945C31.8675 26.6942 31.2605 25.7853 30.4952 25.0196C29.7299 24.2538 28.8212 23.6464 27.8211 23.2318C26.8211 22.8172 25.7491 22.6037 24.6665 22.6035V30.8495Z" fill="#183A9E" opacity="0.15"></path>
    <path d="M36.479 39.2913H44.7208C44.7213 37.1048 43.8533 35.0078 42.3077 33.4613C40.762 31.9149 38.6654 31.0458 36.479 31.0452V39.2913Z" fill="#183A9E" opacity="0.15"></path>
    <path d="M36.479 21.2757V29.4439C37.5608 29.4419 38.5976 29.0107 39.3618 28.245C40.1261 27.4793 40.5553 26.4416 40.5553 25.3598C40.5553 24.278 40.1261 23.2404 39.3618 22.4747C38.5976 21.709 37.5608 21.2778 36.479 21.2757Z" fill="#183A9E" opacity="0.15"></path>
    <path d="M28.7485 16.918L29.8619 21.0022H24.6665V12.8339C25.7494 12.8342 26.7878 13.2646 27.5534 14.0306C28.3189 14.7965 28.7488 15.8351 28.7485 16.918Z" fill="#183A9E" opacity="0.15"></path>
    <path d="M16.9362 8.47621L18.0496 12.5603H7.65869L8.77211 8.47621C8.77211 7.94015 8.87769 7.40933 9.08283 6.91408C9.28797 6.41882 9.58865 5.96882 9.96771 5.58977C10.3468 5.21071 10.7968 4.91003 11.292 4.70489C11.7873 4.49975 12.3181 4.39417 12.8541 4.39417C13.3902 4.39417 13.921 4.49975 14.4163 4.70489C14.9115 4.91003 15.3615 5.21071 15.7406 5.58977C16.1196 5.96882 16.4203 6.41882 16.6254 6.91408C16.8306 7.40933 16.9362 7.94015 16.9362 8.47621V8.47621Z" fill="#183A9E" opacity="0.15"></path>
    <path d="M12.8539 14.1635C10.6679 14.1635 8.57131 15.032 7.02552 16.5778C5.47973 18.1236 4.61132 20.2202 4.61133 22.4062H21.0967C21.0967 21.3238 20.8835 20.2519 20.4692 19.2519C20.055 18.2518 19.4478 17.3432 18.6824 16.5778C17.917 15.8123 17.0083 15.2052 16.0083 14.791C15.0082 14.3767 13.9364 14.1635 12.8539 14.1635Z" fill="#183A9E" opacity="0.15"></path>
    <path d="M36.479 29.8189V29.0689C37.4627 29.0689 38.4062 28.6781 39.1018 27.9825C39.7974 27.2869 40.1882 26.3435 40.1882 25.3597C40.1882 24.376 39.7974 23.4326 39.1018 22.737C38.4062 22.0414 37.4627 21.6506 36.479 21.6506V20.9006C37.6616 20.9006 38.7958 21.3704 39.6321 22.2066C40.4684 23.0429 40.9382 24.1771 40.9382 25.3597C40.9382 26.5424 40.4684 27.6766 39.6321 28.5128C38.7958 29.3491 37.6616 29.8189 36.479 29.8189Z" fill="#000000"></path>
    <path d="M45.0959 39.2912H44.3459C44.3441 37.205 43.5148 35.2046 42.04 33.729C40.5652 32.2535 38.5653 31.4231 36.479 31.4203V30.6703C38.7641 30.6734 40.9546 31.5828 42.57 33.199C44.1855 34.8152 45.0939 37.0061 45.0959 39.2912Z" fill="#000000"></path>
    <path d="M48.6664 48.1322H28.0962L24.2915 44.3252V39.2913H25.0415V44.0147L28.4067 47.3822H47.9164V17.7903H36.4789V17.0403H48.6664V48.1322Z" fill="#000000"></path>
    <path d="M48.2915 38.9163H36.479V39.6663H48.2915V38.9163Z" fill="#000000"></path>
    <path d="M41.082 43.1493H31.8755V43.8993H41.082V43.1493Z" fill="#000000"></path>
    <path d="M33.2834 30.8494H32.5334C32.5316 28.7632 31.7023 26.7628 30.2275 25.2872C28.7527 23.8116 26.7528 22.9813 24.6665 22.9785V22.2285C26.9516 22.2316 29.1421 23.141 30.7575 24.7572C32.373 26.3734 33.2814 28.5643 33.2834 30.8494Z" fill="#000000"></path>
    <path d="M36.8539 39.6663H16.2837L12.479 35.8593V30.8493H13.229V35.5488L16.5942 38.9163H36.1039V9.32434H24.6664V8.57434H36.8539V39.6663Z" fill="#000000"></path>
    <path d="M36.4789 30.4744H24.6665V31.2244H36.4789V30.4744Z" fill="#000000"></path>
    <path d="M30.3398 21.377H24.6665V20.627H29.3847L28.2736 16.0764C28.0871 15.2601 27.6283 14.5314 26.9728 14.0103C26.3172 13.4892 25.5039 13.2066 24.6665 13.209V12.459C25.6728 12.4559 26.6502 12.7951 27.4383 13.4208C28.2263 14.0466 28.7782 14.9217 29.0032 15.9025L30.3398 21.377Z" fill="#000000"></path>
    <path d="M29.2695 34.6832H20.063V35.4332H29.2695V34.6832Z" fill="#000000"></path>
    <path d="M21.4706 22.4079H20.7206C20.7206 20.3214 19.8918 18.3205 18.4165 16.8451C16.9411 15.3698 14.9402 14.541 12.8537 14.541C10.7673 14.541 8.76631 15.3698 7.29098 16.8451C5.81565 18.3205 4.98681 20.3214 4.98681 22.4079H4.23682C4.23682 21.2763 4.4597 20.1558 4.89274 19.1103C5.32578 18.0649 5.9605 17.115 6.76065 16.3148C7.5608 15.5146 8.51072 14.8799 9.55617 14.4469C10.6016 14.0138 11.7221 13.791 12.8537 13.791C13.9853 13.791 15.1058 14.0138 16.1513 14.4469C17.1967 14.8799 18.1466 15.5146 18.9468 16.3148C19.7469 17.115 20.3817 18.0649 20.8147 19.1103C21.2477 20.1558 21.4706 21.2763 21.4706 22.4079Z" fill="#000000"></path>
    <path d="M25.0414 31.2244H4.47215L0.666504 27.4188V0.132446H25.0414V31.2244ZM4.78269 30.4744H24.2914V0.882445H1.4165V27.1082L4.78269 30.4744Z" fill="#000000"></path>
    <path d="M24.6664 22.0329H1.0415V22.7829H24.6664V22.0329Z" fill="#000000"></path>
    <path d="M18.5273 12.9355H7.18066L8.51879 7.45661C8.74736 6.47805 9.30026 5.60559 10.0876 4.98114C10.8749 4.35668 11.8503 4.01696 12.8552 4.01721C13.8601 4.01747 14.8354 4.35769 15.6224 4.98254C16.4094 5.6074 16.9618 6.48013 17.1899 7.4588L18.5273 12.9355ZM8.13573 12.1855H17.5722L16.4597 7.63055C16.2703 6.81624 15.8108 6.09 15.1561 5.57008C14.5014 5.05015 13.69 4.76715 12.854 4.76715C12.0179 4.76715 11.2065 5.05015 10.5518 5.57008C9.89707 6.09 9.43763 6.81624 9.24826 7.63055L8.13573 12.1855Z" fill="#000000"></path>
    <path d="M17.457 26.2172H8.25049V26.9672H17.457V26.2172Z" fill="#000000"></path>
  </g>
  <defs>
    <clipPath id="clip0_9613_54607">
      <rect fill="white" height="48" transform="translate(0.666504 0.132324)" width="48"></rect>
    </clipPath>
  </defs>
</svg>
