<?xml version="1.0" encoding="UTF-8"?>
<svg xmlns="http://www.w3.org/2000/svg" fill="none" height="49" viewBox="0 0 48 49" width="48">
  <g clip-path="url(#clip0_9613_54613)">
    <path d="M35.8124 22.93C39.0436 22.93 41.663 20.3106 41.663 17.0795C41.663 13.8483 39.0436 11.2289 35.8124 11.2289C32.5813 11.2289 29.9619 13.8483 29.9619 17.0795C29.9619 20.3106 32.5813 22.93 35.8124 22.93Z" fill="#183A9E" opacity="0.15"></path>
    <path d="M35.8124 25.2239C32.6795 25.224 29.675 26.4685 27.4597 28.6838C25.2445 30.8991 24 33.9036 24 37.0365H47.6249C47.6249 35.4852 47.3194 33.9492 46.7257 32.516C46.1321 31.0828 45.262 29.7806 44.1651 28.6837C43.0682 27.5868 41.766 26.7167 40.3328 26.1231C38.8997 25.5295 37.3636 25.2239 35.8124 25.2239Z" fill="#183A9E" opacity="0.15"></path>
    <path d="M12.1875 23.305C10.9562 23.305 9.75254 22.9399 8.72875 22.2558C7.70496 21.5718 6.90701 20.5995 6.43581 19.4619C5.96461 18.3243 5.84132 17.0726 6.08154 15.8649C6.32175 14.6573 6.91468 13.548 7.78535 12.6773C8.65601 11.8067 9.7653 11.2137 10.9729 10.9735C12.1806 10.7333 13.4323 10.8566 14.5699 11.3278C15.7075 11.799 16.6798 12.5969 17.3639 13.6207C18.0479 14.6445 18.4131 15.8482 18.4131 17.0795C18.4112 18.73 17.7547 20.3125 16.5876 21.4796C15.4205 22.6467 13.838 23.3032 12.1875 23.305ZM12.1875 11.6039C11.1045 11.6039 10.0459 11.925 9.14542 12.5267C8.24497 13.1283 7.54315 13.9835 7.12872 14.984C6.71429 15.9846 6.60585 17.0855 6.81713 18.1477C7.0284 19.2099 7.5499 20.1855 8.31568 20.9513C9.08145 21.7171 10.0571 22.2386 11.1193 22.4498C12.1814 22.6611 13.2824 22.5527 14.2829 22.1382C15.2834 21.7238 16.1386 21.022 16.7403 20.1215C17.3419 19.2211 17.6631 18.1624 17.6631 17.0795C17.6615 15.6277 17.0841 14.2359 16.0576 13.2094C15.031 12.1829 13.6392 11.6054 12.1875 11.6039V11.6039Z" fill="#000000"></path>
    <path d="M24.375 37.0365H23.625C23.625 34.0031 22.4199 31.0939 20.275 28.949C18.1301 26.804 15.2209 25.599 12.1875 25.599C9.15407 25.599 6.2449 26.804 4.09996 28.949C1.95502 31.0939 0.749999 34.0031 0.749999 37.0365H0C0 33.8042 1.28403 30.7042 3.56963 28.4186C5.85523 26.133 8.95516 24.849 12.1875 24.849C15.4198 24.849 18.5197 26.133 20.8053 28.4186C23.0909 30.7042 24.375 33.8042 24.375 37.0365Z" fill="#000000"></path>
    <path d="M35.8125 23.305C34.5812 23.305 33.3775 22.9399 32.3537 22.2558C31.33 21.5718 30.532 20.5995 30.0608 19.4619C29.5896 18.3243 29.4663 17.0726 29.7065 15.8649C29.9468 14.6573 30.5397 13.548 31.4103 12.6773C32.281 11.8067 33.3903 11.2137 34.5979 10.9735C35.8056 10.7333 37.0573 10.8566 38.1949 11.3278C39.3325 11.799 40.3048 12.5969 40.9889 13.6207C41.6729 14.6445 42.0381 15.8482 42.0381 17.0795C42.0362 18.73 41.3797 20.3125 40.2126 21.4796C39.0455 22.6467 37.463 23.3032 35.8125 23.305ZM35.8125 11.6039C34.7295 11.6039 33.6709 11.925 32.7704 12.5267C31.87 13.1283 31.1682 13.9835 30.7537 14.984C30.3393 15.9846 30.2309 17.0855 30.4421 18.1477C30.6534 19.2099 31.1749 20.1855 31.9407 20.9513C32.7064 21.7171 33.6821 22.2386 34.7443 22.4498C35.8064 22.6611 36.9074 22.5527 37.9079 22.1382C38.9084 21.7238 39.7636 21.022 40.3653 20.1215C40.9669 19.2211 41.2881 18.1624 41.2881 17.0795C41.2865 15.6277 40.7091 14.2359 39.6826 13.2094C38.656 12.1829 37.2642 11.6054 35.8125 11.6039V11.6039Z" fill="#000000"></path>
    <path d="M48 37.0365H47.25C47.25 34.0031 46.0449 31.0939 43.9 28.949C41.7551 26.804 38.8459 25.599 35.8125 25.599C32.7791 25.599 29.8699 26.804 27.725 28.949C25.58 31.0939 24.375 34.0031 24.375 37.0365H23.625C23.625 33.8042 24.909 30.7042 27.1946 28.4186C29.4802 26.133 32.5802 24.849 35.8125 24.849C39.0448 24.849 42.1447 26.133 44.4303 28.4186C46.7159 30.7042 48 33.8042 48 37.0365Z" fill="#000000"></path>
    <path d="M36.1875 11.2286H35.4375V0.882323H12.5625V11.2286H11.8125V0.132324H36.1875V11.2286Z" fill="#000000"></path>
    <path d="M36.1875 48.1323H11.8125V37.0368H12.5625V47.3823H35.4375V37.0368H36.1875V48.1323Z" fill="#000000"></path>
    <path d="M35.8125 11.5379C35.7461 11.5382 35.6803 11.5252 35.6189 11.4998C35.5576 11.4744 35.5019 11.4371 35.4551 11.39L31.166 7.10056L31.6963 6.57031L35.8125 10.6869L39.9287 6.57031L40.459 7.10056L36.1699 11.39C36.1231 11.4371 36.0674 11.4744 36.006 11.4998C35.9447 11.5252 35.8789 11.5382 35.8125 11.5379Z" fill="#000000"></path>
    <path d="M16.212 41.5908L12.075 37.4538L7.93796 41.5908L7.40771 41.0606L12.075 36.3933L16.7422 41.0606L16.212 41.5908Z" fill="#000000"></path>
  </g>
  <defs>
    <clipPath id="clip0_9613_54613">
      <rect fill="white" height="48" transform="translate(0 0.132324)" width="48"></rect>
    </clipPath>
  </defs>
</svg>
